# Blender v2.79 (sub 0) OBJ File: 'obelisk.blend'
# www.blender.org
o Jar002_Cylinder.003
v 0.000000 0.000000 0.223753
v 0.000000 1.000000 0.124446
v -0.193776 0.000000 0.111877
v -0.107773 1.000000 0.062223
v -0.193776 0.000000 -0.111877
v -0.107773 1.000000 -0.062223
v 0.000000 0.000000 -0.223753
v 0.000000 1.000000 -0.124446
v 0.193776 0.000000 -0.111877
v 0.107773 1.000000 -0.062223
v 0.193776 0.000000 0.111877
v 0.107773 1.000000 0.062223
v 0.000000 0.816327 0.117304
v -0.101588 0.816327 0.058652
v -0.101588 0.816327 -0.058652
v 0.000000 0.816327 -0.117304
v 0.101588 0.816327 -0.058652
v 0.101588 0.816327 0.058652
v -0.194214 0.559246 0.112129
v -0.194214 0.559246 -0.112129
v 0.000000 0.559246 -0.224259
v 0.194214 0.559246 -0.112129
v 0.194214 0.559246 0.112129
v 0.000000 0.559246 0.224259
v -0.247591 0.231643 0.142947
v -0.247591 0.231643 -0.142947
v 0.000000 0.231643 -0.285894
v 0.247591 0.231643 -0.142947
v 0.247591 0.231643 0.142947
v -0.000000 0.231643 0.285894
v 0.000000 0.000000 0.223753
v 0.000000 1.000000 0.124446
v -0.193776 0.000000 0.111877
v -0.107773 1.000000 0.062223
v -0.193776 0.000000 -0.111877
v -0.107773 1.000000 -0.062223
v 0.000000 0.000000 -0.223753
v 0.000000 1.000000 -0.124446
v 0.193776 0.000000 -0.111877
v 0.107773 1.000000 -0.062223
v 0.193776 0.000000 0.111877
v 0.107773 1.000000 0.062223
v 0.000000 0.816327 0.117304
v -0.101588 0.816327 0.058652
v -0.101588 0.816327 -0.058652
v 0.000000 0.816327 -0.117304
v 0.101588 0.816327 -0.058652
v 0.101588 0.816327 0.058652
v -0.194214 0.559246 0.112129
v -0.194214 0.559246 -0.112129
v 0.000000 0.559246 -0.224259
v 0.194214 0.559246 -0.112129
v 0.194214 0.559246 0.112129
v 0.000000 0.559246 0.224259
v -0.247591 0.231643 0.142947
v -0.247591 0.231643 -0.142947
v 0.000000 0.231643 -0.285894
v 0.247591 0.231643 -0.142947
v 0.247591 0.231643 0.142947
v -0.000000 0.231643 0.285894
vt 0.874939 0.908158
vt 0.749959 0.999980
vt 0.749959 0.908158
vt 0.624980 0.908158
vt 0.624979 0.999980
vt 0.500000 0.908158
vt 0.375020 0.999979
vt 0.375020 0.908158
vt 0.250041 0.908158
vt 0.250041 0.999979
vt 0.125061 0.908158
vt 0.250041 0.779639
vt 0.125061 0.779639
vt 0.375021 0.779639
vt 0.500000 0.779639
vt 0.624980 0.779639
vt 0.749959 0.779639
vt 0.874939 0.779639
vt 0.749959 0.615864
vt 0.874939 0.615864
vt 0.624980 0.615864
vt 0.500000 0.615864
vt 0.375021 0.615864
vt 0.250041 0.615864
vt 0.125062 0.615864
vt 0.125062 0.500061
vt 0.250041 0.500061
vt 0.375021 0.500061
vt 0.500000 0.500061
vt 0.624980 0.500062
vt 0.749959 0.500062
vt 0.874939 0.500062
vt 0.874939 0.408158
vt 0.749959 0.499980
vt 0.874939 0.499980
vt 0.624980 0.408158
vt 0.749959 0.408158
vt 0.500000 0.408158
vt 0.624979 0.499980
vt 0.375020 0.408158
vt 0.500000 0.499980
vt 0.250041 0.408158
vt 0.375020 0.499979
vt 0.125061 0.408158
vt 0.250041 0.499979
vt 0.250041 0.279639
vt 0.375021 0.279639
vt 0.500000 0.279639
vt 0.624980 0.279639
vt 0.749959 0.279639
vt 0.874939 0.279639
vt 0.749959 0.115864
vt 0.874939 0.115864
vt 0.624980 0.115864
vt 0.500000 0.115864
vt 0.375021 0.115864
vt 0.125062 0.115864
vt 0.250041 0.115864
vt 0.125062 0.000061
vt 0.250041 0.000061
vt 0.375021 0.000061
vt 0.500000 0.000061
vt 0.624980 0.000062
vt 0.749959 0.000062
vt 0.874939 0.000062
vt 0.874939 0.999980
vt 0.500000 0.999980
vt 0.125061 0.999979
vt 0.125061 0.499979
vt 0.125061 0.279639
vn -0.4997 -0.0337 0.8655
vn -0.9994 -0.0337 0.0000
vn -0.4997 -0.0337 -0.8655
vn 0.4997 -0.0337 -0.8655
vn 0.9994 -0.0337 0.0000
vn 0.4997 -0.0337 0.8655
vn 0.4704 0.3390 0.8148
vn 0.9408 0.3390 0.0000
vn 0.4704 0.3390 -0.8148
vn -0.4704 0.3390 -0.8148
vn -0.9408 0.3390 0.0000
vn -0.4704 0.3390 0.8148
vn -0.4935 0.1608 0.8548
vn -0.9870 0.1608 0.0000
vn -0.4935 0.1608 -0.8548
vn 0.4935 0.1608 -0.8548
vn 0.9870 0.1608 0.0000
vn 0.4935 0.1608 0.8548
vn 0.4870 -0.2263 0.8436
vn 0.9741 -0.2263 0.0000
vn 0.4870 -0.2263 -0.8436
vn -0.4870 -0.2263 -0.8436
vn -0.9741 -0.2263 0.0000
vn -0.4870 -0.2263 0.8436
vn 0.4997 0.0337 -0.8655
vn 0.9994 0.0337 0.0000
vn 0.4997 0.0337 0.8655
vn -0.4997 0.0337 0.8655
vn -0.9994 0.0337 0.0000
vn -0.4997 0.0337 -0.8655
vn -0.4704 -0.3390 -0.8148
vn -0.9408 -0.3390 0.0000
vn -0.4704 -0.3390 0.8148
vn 0.4704 -0.3390 0.8148
vn 0.9408 -0.3390 0.0000
vn 0.4704 -0.3390 -0.8148
vn 0.4935 -0.1608 -0.8548
vn 0.9870 -0.1608 0.0000
vn 0.4935 -0.1608 0.8548
vn -0.4935 -0.1608 0.8548
vn -0.9870 -0.1608 0.0000
vn -0.4935 -0.1608 -0.8548
vn -0.4870 0.2263 -0.8436
vn -0.9741 0.2263 0.0000
vn -0.4870 0.2263 0.8436
vn 0.4870 0.2263 0.8436
vn 0.9741 0.2263 0.0000
vn 0.4870 0.2263 -0.8436
s off
f 13/1/1 4/2/1 14/3/1
f 4/2/2 15/4/2 14/3/2
f 6/5/3 16/6/3 15/4/3
f 16/6/4 10/7/4 17/8/4
f 10/7/5 18/9/5 17/8/5
f 12/10/6 13/11/6 18/9/6
f 23/12/7 13/11/7 24/13/7
f 17/8/8 23/12/8 22/14/8
f 16/6/9 22/14/9 21/15/9
f 15/4/10 21/15/10 20/16/10
f 19/17/11 15/4/11 20/16/11
f 13/1/12 19/17/12 24/18/12
f 24/18/13 25/19/13 30/20/13
f 19/17/14 26/21/14 25/19/14
f 26/21/15 21/15/15 27/22/15
f 21/15/16 28/23/16 27/22/16
f 22/14/17 29/24/17 28/23/17
f 23/12/18 30/25/18 29/24/18
f 29/24/19 1/26/19 11/27/19
f 28/23/20 11/27/20 9/28/20
f 27/22/21 9/28/21 7/29/21
f 26/21/22 7/29/22 5/30/22
f 25/19/23 5/30/23 3/31/23
f 30/20/24 3/31/24 1/32/24
f 43/33/25 34/34/25 32/35/25
f 45/36/26 34/34/26 44/37/26
f 46/38/27 36/39/27 45/36/27
f 47/40/28 38/41/28 46/38/28
f 48/42/29 40/43/29 47/40/29
f 43/44/30 42/45/30 48/42/30
f 53/46/31 43/44/31 48/42/31
f 53/46/32 47/40/32 52/47/32
f 52/47/33 46/38/33 51/48/33
f 51/48/34 45/36/34 50/49/34
f 50/49/35 44/37/35 49/50/35
f 49/50/36 43/33/36 54/51/36
f 55/52/37 54/51/37 60/53/37
f 56/54/38 49/50/38 55/52/38
f 57/55/39 50/49/39 56/54/39
f 58/56/40 51/48/40 57/55/40
f 58/56/41 53/46/41 52/47/41
f 60/57/42 53/46/42 59/58/42
f 31/59/43 59/58/43 41/60/43
f 41/60/44 58/56/44 39/61/44
f 39/61/45 57/55/45 37/62/45
f 37/62/46 56/54/46 35/63/46
f 35/63/47 55/52/47 33/64/47
f 33/64/48 60/53/48 31/65/48
f 13/1/1 2/66/1 4/2/1
f 4/2/2 6/5/2 15/4/2
f 6/5/3 8/67/3 16/6/3
f 16/6/4 8/67/4 10/7/4
f 10/7/5 12/10/5 18/9/5
f 12/10/6 2/68/6 13/11/6
f 23/12/7 18/9/7 13/11/7
f 17/8/8 18/9/8 23/12/8
f 16/6/9 17/8/9 22/14/9
f 15/4/10 16/6/10 21/15/10
f 19/17/11 14/3/11 15/4/11
f 13/1/12 14/3/12 19/17/12
f 24/18/13 19/17/13 25/19/13
f 19/17/14 20/16/14 26/21/14
f 26/21/15 20/16/15 21/15/15
f 21/15/16 22/14/16 28/23/16
f 22/14/17 23/12/17 29/24/17
f 23/12/18 24/13/18 30/25/18
f 29/24/19 30/25/19 1/26/19
f 28/23/20 29/24/20 11/27/20
f 27/22/21 28/23/21 9/28/21
f 26/21/22 27/22/22 7/29/22
f 25/19/23 26/21/23 5/30/23
f 30/20/24 25/19/24 3/31/24
f 43/33/25 44/37/25 34/34/25
f 45/36/26 36/39/26 34/34/26
f 46/38/27 38/41/27 36/39/27
f 47/40/28 40/43/28 38/41/28
f 48/42/29 42/45/29 40/43/29
f 43/44/30 32/69/30 42/45/30
f 53/46/31 54/70/31 43/44/31
f 53/46/32 48/42/32 47/40/32
f 52/47/33 47/40/33 46/38/33
f 51/48/34 46/38/34 45/36/34
f 50/49/35 45/36/35 44/37/35
f 49/50/36 44/37/36 43/33/36
f 55/52/37 49/50/37 54/51/37
f 56/54/38 50/49/38 49/50/38
f 57/55/39 51/48/39 50/49/39
f 58/56/40 52/47/40 51/48/40
f 58/56/41 59/58/41 53/46/41
f 60/57/42 54/70/42 53/46/42
f 31/59/43 60/57/43 59/58/43
f 41/60/44 59/58/44 58/56/44
f 39/61/45 58/56/45 57/55/45
f 37/62/46 57/55/46 56/54/46
f 35/63/47 56/54/47 55/52/47
f 33/64/48 55/52/48 60/53/48
