# Blender v2.79 (sub 0) OBJ File: 'ghost.blend'
# www.blender.org
o Cube
v -0.085313 0.080500 0.257913
v 0.471984 0.165346 0.219644
v -0.085903 1.478893 0.273575
v 0.194360 1.475348 0.401626
v 0.146878 0.115850 0.388642
v 0.077617 1.525723 0.352678
v 0.023477 1.590144 0.173892
v -0.120258 1.973035 0.173892
v -0.029288 1.851704 0.249916
v -0.147604 0.870174 0.158568
v 0.248351 0.898396 0.228431
v 0.034242 0.870174 0.319574
v 0.211813 1.199136 0.368635
v -0.105512 1.218647 0.265177
v -0.127912 1.117650 0.406811
v -0.155534 1.456102 0.302099
v -0.089564 1.423316 0.495081
v -0.128428 1.502932 0.414305
v -0.391494 1.063857 0.372795
v -0.456564 1.518299 0.287550
v -0.466948 1.565128 0.371643
v -0.481835 1.514754 0.458556
v 0.051743 1.703496 0.130082
v 0.036552 1.919256 0.153113
v -0.102101 1.649338 0.078616
v -0.102101 1.960564 0.090010
v 0.051743 1.782455 0.145702
v -0.102101 1.748116 0.108931
v -0.428739 1.442065 0.374048
v -0.428739 1.487049 0.329064
v -0.428739 1.487049 0.419032
v -0.428739 1.532034 0.374048
v -0.549975 1.458601 0.374048
v -0.549975 1.503585 0.329064
v -0.549975 1.503585 0.419032
v -0.549975 1.548569 0.374048
v -0.582270 1.481728 0.297990
v -0.582270 1.481728 0.445178
v -0.609778 1.531875 0.371584
v -0.628859 1.291635 0.370864
v -0.085313 0.080500 -0.257913
v -0.166338 0.068164 0.000000
v 0.534530 0.174869 0.000000
v 0.471984 0.165346 -0.219644
v -0.085903 1.478893 -0.273575
v -0.070994 1.555057 0.000000
v 0.280894 1.555057 0.000000
v 0.194360 1.475348 -0.401626
v 0.146878 0.115850 -0.388642
v 0.077617 1.525723 -0.352678
v -0.206725 1.358366 0.000000
v 0.023477 1.590144 -0.173892
v -0.239207 2.003141 0.000000
v 0.242308 2.003141 0.000000
v 0.077618 2.054962 0.000000
v -0.120258 1.973035 -0.173892
v 0.031011 1.851704 0.000000
v 0.342116 1.851704 0.000000
v -0.029288 1.851704 -0.249916
v 0.067498 1.617341 0.000000
v -0.147604 0.870174 -0.158568
v 0.311618 0.930185 0.000000
v 0.248351 0.898396 -0.228431
v -0.239208 0.907524 0.000000
v 0.034242 0.870174 -0.319574
v 0.211813 1.199136 -0.368635
v 0.392029 1.250950 0.000000
v -0.105512 1.218647 -0.265177
v -0.127912 1.117650 -0.406811
v -0.155534 1.456102 -0.302099
v -0.089564 1.423316 -0.495081
v -0.128428 1.502932 -0.414305
v -0.391494 1.063857 -0.372795
v -0.456564 1.518299 -0.287550
v -0.466948 1.565128 -0.371643
v -0.481835 1.514754 -0.458556
v 0.085590 1.623770 0.000000
v 0.051743 1.703496 -0.130082
v 0.036552 1.919256 -0.153113
v -0.127693 1.631841 0.000000
v -0.127693 1.960564 0.000000
v -0.102101 1.649338 -0.078616
v -0.102101 1.960564 -0.090010
v 0.051743 1.782455 -0.145702
v -0.102101 1.748116 -0.108931
v -0.143170 1.737022 0.000000
v -0.428739 1.442065 -0.374048
v -0.428739 1.487049 -0.329064
v -0.428739 1.487049 -0.419032
v -0.428739 1.532034 -0.374048
v -0.549975 1.458601 -0.374048
v -0.549975 1.503585 -0.329064
v -0.549975 1.503585 -0.419032
v -0.549975 1.548569 -0.374048
v -0.582270 1.481728 -0.297990
v -0.582270 1.481728 -0.445178
v -0.609778 1.531875 -0.371584
v -0.628859 1.291635 -0.370864
vt 0.491938 0.639015
vt 0.573970 0.753087
vt 0.500157 0.700828
vt 0.830593 0.539156
vt 0.692121 0.398710
vt 0.776052 0.378917
vt 0.682364 0.511496
vt 0.538138 0.360853
vt 0.650143 0.366936
vt 0.404639 0.010511
vt 0.428968 0.357330
vt 0.816736 0.012797
vt 0.888039 0.374657
vt 0.839846 0.658549
vt 0.810419 0.738198
vt 0.721594 0.713556
vt 0.297431 0.895327
vt 0.481754 0.873375
vt 0.421002 0.924619
vt 0.173745 0.845647
vt 0.255129 0.933699
vt 0.173745 0.988242
vt 0.306719 0.817791
vt 0.289997 0.993016
vt 0.701710 0.605770
vt 0.332977 0.692799
vt 0.511573 0.795390
vt 0.739048 0.780986
vt 0.186912 0.737257
vt 0.270427 0.738037
vt 0.290637 0.864148
vt 0.087620 0.347529
vt 0.076880 0.238880
vt 0.120470 0.344986
vt 0.340347 0.334135
vt 0.424444 0.486543
vt 0.265322 0.455350
vt 0.677736 0.009790
vt 0.574038 0.005691
vt 0.692121 0.011035
vt 0.493069 0.511451
vt 0.251110 0.435864
vt 0.099865 0.396630
vt 0.272379 0.653052
vt 0.104944 0.642295
vt 0.284244 0.600144
vt 0.035953 0.059735
vt 0.131145 0.176112
vt 0.375588 0.661235
vt 0.421284 0.615539
vt 0.029840 0.374404
vt 0.011578 0.616584
vt 0.047516 0.404666
vt 0.050661 0.638000
vt 0.091609 0.615444
vt 0.258042 0.173324
vt 0.258042 0.392900
vt 0.142186 0.430906
vt 0.154875 0.827975
vt 0.064635 0.815345
vt 0.143739 0.739619
vt 0.157224 0.963143
vt 0.073973 0.865000
vt 0.164568 0.877587
vt 0.010422 0.985301
vt 0.010422 0.860896
vt 0.021742 0.803417
vt 0.618671 0.978264
vt 0.651551 0.903947
vt 0.657714 0.978793
vt 0.546813 0.904544
vt 0.579664 0.978793
vt 0.540657 0.979323
vt 0.690594 0.904477
vt 0.696756 0.979323
vt 0.585820 0.904015
vt 0.618621 0.909686
vt 0.617866 0.888496
vt 0.659655 0.873159
vt 0.792597 0.976784
vt 0.765462 0.954000
vt 0.813082 0.958032
vt 0.738326 0.976784
vt 0.720253 0.957886
vt 0.576674 0.871790
vt 0.619510 0.764807
vt 0.767190 0.851148
vt 0.066787 0.984806
vt 0.573970 0.753087
vt 0.491938 0.639015
vt 0.500157 0.700828
vt 0.830593 0.539156
vt 0.776052 0.378917
vt 0.538138 0.360853
vt 0.404639 0.010511
vt 0.428968 0.357330
vt 0.888039 0.374657
vt 0.816736 0.012797
vt 0.839846 0.658549
vt 0.810419 0.738198
vt 0.899339 0.720697
vt 0.297431 0.895327
vt 0.255129 0.933699
vt 0.290637 0.864148
vt 0.306719 0.817791
vt 0.332977 0.692799
vt 0.473396 0.661281
vt 0.270427 0.738037
vt 0.087620 0.347529
vt 0.120470 0.344986
vt 0.076880 0.238880
vt 0.340347 0.334135
vt 0.265322 0.455350
vt 0.424444 0.486543
vt 0.493069 0.511451
vt 0.251110 0.435864
vt 0.099865 0.396630
vt 0.104944 0.642295
vt 0.272379 0.653052
vt 0.284244 0.600144
vt 0.131145 0.176112
vt 0.035953 0.059735
vt 0.375588 0.661235
vt 0.421284 0.615539
vt 0.029840 0.374404
vt 0.011578 0.616584
vt 0.050661 0.638000
vt 0.047516 0.404666
vt 0.091609 0.615444
vt 0.258042 0.173324
vt 0.142186 0.430906
vt 0.154875 0.827975
vt 0.064635 0.815345
vt 0.157224 0.963143
vt 0.164568 0.877587
vt 0.073973 0.865000
vt 0.066787 0.984806
vt 0.651551 0.903947
vt 0.618671 0.978264
vt 0.657714 0.978793
vt 0.546813 0.904544
vt 0.579664 0.978793
vt 0.585820 0.904015
vt 0.690594 0.904477
vt 0.618621 0.909686
vt 0.617866 0.888496
vt 0.792597 0.976784
vt 0.813082 0.958032
vt 0.765462 0.954000
vt 0.720253 0.957886
vt 0.738326 0.976784
vt 0.619510 0.764807
vt 0.576674 0.871790
vt 0.659655 0.873159
vt 0.767190 0.851148
vt 0.682364 0.659686
vt 0.939801 0.025885
vt 0.899339 0.720697
vt 0.113077 0.689563
vt 0.574038 0.005691
vt 0.939801 0.025885
vt 0.258042 0.392900
vt 0.113077 0.689563
vt 0.540657 0.979323
vt 0.696756 0.979323
vn 0.2966 0.9236 0.2430
vn -0.8696 -0.0454 0.4917
vn 0.9443 -0.2367 0.2286
vn 0.3722 0.1396 0.9176
vn -0.6623 0.0419 0.7480
vn -0.6160 0.7669 0.1799
vn 0.2354 0.7482 0.6204
vn -0.4809 -0.8580 0.1804
vn 0.2829 0.6526 0.7029
vn -0.1554 0.9500 0.2708
vn -0.8178 0.5644 0.1125
vn 0.5537 -0.1275 0.8229
vn -0.4099 0.9113 0.0388
vn -0.9582 -0.1174 -0.2609
vn -0.9612 -0.1496 -0.2319
vn -0.3950 0.0593 -0.9168
vn 0.1632 -0.2311 0.9591
vn 0.9207 0.2776 0.2742
vn -0.9529 -0.0373 0.3011
vn 0.4058 -0.3452 0.8463
vn -0.9223 0.0572 0.3822
vn 0.8981 0.0042 0.4397
vn -0.6557 -0.1474 0.7405
vn 0.2149 0.8817 -0.4199
vn 0.1085 0.7336 0.6709
vn -0.8222 -0.3939 -0.4109
vn 0.0672 0.7710 0.6333
vn 0.1760 -0.2934 0.9396
vn -0.1709 0.9614 -0.2159
vn -0.9513 -0.1593 -0.2641
vn 0.3265 -0.0917 0.9407
vn -0.9881 -0.1488 -0.0391
vn -0.9579 -0.1448 -0.2480
vn 0.0097 -0.1830 -0.9831
vn -0.0691 -0.2688 0.9607
vn 0.1128 -0.8338 0.5404
vn -0.2156 -0.0767 0.9735
vn -0.9359 0.0648 0.3463
vn -0.0368 -0.9728 0.2285
vn -0.9325 -0.1372 0.3341
vn -0.2116 -0.2867 0.9343
vn 0.0960 0.7038 0.7038
vn -0.0960 -0.7038 -0.7038
vn -0.0960 -0.7038 0.7038
vn 0.0960 0.7038 -0.7038
vn -0.1659 0.6973 -0.6973
vn -0.0778 0.8101 0.5811
vn 0.7571 -0.4619 -0.4619
vn 0.7245 -0.4874 0.4874
vn -0.9166 0.0740 -0.3930
vn -0.9173 0.0717 0.3917
vn 0.8078 -0.3730 -0.4564
vn 0.7885 -0.3817 0.4821
vn -0.3926 0.0816 0.9161
vn 0.2966 0.9236 -0.2430
vn -0.8696 -0.0454 -0.4917
vn 0.9443 -0.2367 -0.2286
vn 0.3722 0.1396 -0.9176
vn -0.6623 0.0419 -0.7480
vn -0.4314 0.7992 -0.4186
vn 0.2354 0.7482 -0.6204
vn -0.7313 -0.6589 0.1764
vn 0.5239 0.3453 -0.7786
vn -0.1554 0.9500 -0.2708
vn -0.8178 0.5644 -0.1125
vn 0.5456 -0.1126 -0.8304
vn -0.4099 0.9113 -0.0388
vn -0.9582 -0.1174 0.2609
vn -0.9612 -0.1496 0.2319
vn -0.3950 0.0593 0.9168
vn 0.1632 -0.2311 -0.9591
vn 0.9174 0.2707 -0.2918
vn -0.9529 -0.0373 -0.3011
vn 0.4058 -0.3452 -0.8463
vn -0.9223 0.0572 -0.3822
vn 0.8981 0.0042 -0.4397
vn -0.6557 -0.1474 -0.7405
vn 0.2149 0.8817 0.4199
vn 0.1085 0.7336 -0.6709
vn -0.8222 -0.3939 0.4109
vn 0.0672 0.7710 -0.6333
vn 0.1760 -0.2934 -0.9396
vn -0.1709 0.9614 0.2159
vn -0.9513 -0.1593 0.2641
vn 0.3265 -0.0917 -0.9407
vn -0.9881 -0.1488 0.0391
vn -0.9579 -0.1448 0.2480
vn 0.1785 -0.2775 0.9440
vn -0.0691 -0.2688 -0.9607
vn 0.1128 -0.8338 -0.5404
vn -0.2156 -0.0767 -0.9735
vn -0.9616 0.0243 -0.2734
vn -0.0368 -0.9728 -0.2285
vn -0.9262 -0.1106 -0.3605
vn -0.1878 -0.1906 -0.9635
vn -0.1659 0.6973 0.6973
vn -0.2209 0.6896 -0.6896
vn 0.7571 -0.4619 0.4619
vn 0.7245 -0.4874 -0.4874
vn -0.9166 0.0740 0.3930
vn -0.9173 0.0717 -0.3917
vn 0.8078 -0.3730 0.4564
vn 0.7885 -0.3817 -0.4821
vn -0.3926 0.0816 -0.9161
vn 0.2924 0.9240 0.2464
vn -0.9201 0.0663 0.3861
vn 0.8997 -0.0899 0.4272
vn 0.4427 0.1244 0.8880
vn -0.4913 0.0064 0.8709
vn -0.4314 0.7992 0.4186
vn -0.7313 -0.6589 -0.1764
vn 0.5239 0.3453 0.7786
vn 0.5456 -0.1126 0.8304
vn 0.9174 0.2707 0.2918
vn -0.8710 -0.0756 0.4854
vn 0.9067 0.3313 0.2611
vn 0.2011 0.8662 -0.4575
vn 0.0926 0.8545 0.5111
vn 0.1184 0.7351 0.6676
vn -0.3976 0.8769 -0.2699
vn 0.1785 -0.2775 -0.9440
vn -0.1395 -0.2119 0.9673
vn -0.9616 0.0243 0.2734
vn -0.9262 -0.1106 0.3605
vn -0.1878 -0.1906 0.9635
vn -0.0128 0.8241 -0.5663
vn -0.2209 0.6896 0.6896
vn 0.2924 0.9240 -0.2464
vn -0.9201 0.0663 -0.3861
vn 0.8997 -0.0899 -0.4272
vn 0.4427 0.1244 -0.8880
vn -0.4913 0.0064 -0.8709
vn -0.6160 0.7669 -0.1799
vn -0.4809 -0.8580 -0.1804
vn 0.2829 0.6526 -0.7029
vn 0.5537 -0.1275 -0.8229
vn 0.9207 0.2776 -0.2742
vn -0.8710 -0.0756 -0.4854
vn 0.9067 0.3313 -0.2611
vn 0.2011 0.8662 0.4575
vn 0.0926 0.8545 -0.5111
vn 0.1184 0.7351 -0.6676
vn -0.3976 0.8769 0.2699
vn 0.0097 -0.1830 0.9831
vn -0.1395 -0.2119 -0.9673
vn -0.9359 0.0648 -0.3463
vn -0.9325 -0.1372 -0.3341
vn -0.2116 -0.2867 -0.9343
vn -0.0128 0.8241 0.5663
vn -0.0778 0.8101 -0.5811
s off
f 4/1/1 7/2/1 6/3/1
f 14/4/2 64/5/2 10/6/2
f 67/7/3 11/8/3 62/9/3
f 5/10/4 11/8/4 12/11/4
f 1/12/5 12/13/5 10/6/5
f 3/14/6 7/15/6 46/16/6
f 8/17/7 54/18/7 55/19/7
f 57/20/8 8/21/8 53/22/8
f 9/23/9 54/18/9 8/17/9
f 53/24/10 8/17/10 55/19/10
f 51/25/11 3/14/11 46/16/11
f 7/26/12 58/27/12 9/23/12
f 46/16/13 7/15/13 60/28/13
f 60/29/14 7/30/14 9/31/14
f 9/31/15 57/20/15 60/29/15
f 3/32/16 14/33/16 16/34/16
f 12/35/17 13/36/17 15/37/17
f 43/38/18 11/8/18 2/39/18
f 10/6/19 42/40/19 1/12/19
f 13/41/20 12/11/20 11/8/20
f 51/25/21 14/4/21 3/14/21
f 67/7/22 4/1/22 13/41/22
f 12/13/23 14/4/23 10/6/23
f 16/34/24 21/42/24 18/43/24
f 18/44/25 22/45/25 17/46/25
f 14/33/26 12/47/26 15/48/26
f 6/49/27 17/46/27 4/50/27
f 13/36/28 17/46/28 15/37/28
f 3/32/29 18/43/29 6/51/29
f 16/34/30 14/33/30 15/48/30
f 17/46/31 13/36/31 4/50/31
f 20/52/32 19/53/32 21/54/32
f 21/54/33 19/53/33 22/55/33
f 16/34/34 19/56/34 20/57/34
f 17/46/35 19/58/35 15/37/35
f 23/59/36 25/60/36 77/61/36
f 24/62/37 28/63/37 27/64/37
f 28/63/38 81/65/38 86/66/38
f 25/60/39 80/67/39 77/61/39
f 25/60/40 86/66/40 80/67/40
f 23/59/41 28/63/41 25/60/41
f 32/68/42 35/69/42 31/70/42
f 33/71/43 30/72/43 29/73/43
f 31/70/44 33/74/44 29/75/44
f 32/68/45 34/76/45 36/77/45
f 34/76/46 39/78/46 36/77/46
f 35/69/47 39/78/47 38/79/47
f 34/80/48 33/81/48 37/82/48
f 33/81/49 35/83/49 38/84/49
f 39/78/50 37/85/50 40/86/50
f 38/79/51 39/78/51 40/86/51
f 37/82/52 33/81/52 40/87/52
f 33/81/53 38/84/53 40/87/53
f 24/62/54 26/88/54 28/63/54
f 52/89/55 48/90/55 50/91/55
f 64/5/56 68/92/56 61/93/56
f 63/94/57 67/7/57 62/9/57
f 63/94/58 49/95/58 65/96/58
f 65/97/59 41/98/59 61/93/59
f 45/99/60 52/100/60 50/101/60
f 56/102/61 55/19/61 54/18/61
f 57/20/62 56/103/62 59/104/62
f 59/105/63 54/18/63 58/27/63
f 53/24/64 55/19/64 56/102/64
f 51/25/65 46/16/65 45/99/65
f 52/106/66 58/27/66 47/107/66
f 46/16/67 60/28/67 52/100/67
f 60/29/68 59/104/68 52/108/68
f 59/104/69 60/29/69 57/20/69
f 45/109/70 70/110/70 68/111/70
f 65/112/71 69/113/71 66/114/71
f 43/38/72 63/94/72 62/9/72
f 42/40/73 61/93/73 41/98/73
f 66/115/74 63/94/74 65/96/74
f 51/25/75 45/99/75 68/92/75
f 48/90/76 67/7/76 66/115/76
f 65/97/77 61/93/77 68/92/77
f 75/116/78 70/110/78 72/117/78
f 76/118/79 72/119/79 71/120/79
f 68/111/80 69/121/80 65/122/80
f 71/120/81 50/123/81 48/124/81
f 66/114/82 69/113/82 71/120/82
f 72/117/83 45/109/83 50/125/83
f 70/110/84 69/121/84 68/111/84
f 71/120/85 48/124/85 66/114/85
f 74/126/86 75/127/86 73/128/86
f 75/127/87 76/129/87 73/128/87
f 70/110/88 73/130/88 69/121/88
f 73/131/89 71/120/89 69/113/89
f 78/132/90 77/61/90 82/133/90
f 79/134/91 84/135/91 85/136/91
f 85/136/92 81/65/92 83/137/92
f 82/133/93 77/61/93 80/67/93
f 82/133/94 86/66/94 85/136/94
f 78/132/95 85/136/95 84/135/95
f 93/138/45 90/139/45 89/140/45
f 91/141/44 88/142/44 92/143/44
f 89/140/43 91/144/43 93/138/43
f 92/143/42 90/139/42 94/145/42
f 97/146/96 92/143/96 94/145/96
f 93/138/97 97/146/97 94/145/97
f 92/147/98 95/148/98 91/149/98
f 91/149/99 96/150/99 93/151/99
f 97/146/100 98/152/100 95/153/100
f 96/154/101 98/152/101 97/146/101
f 95/148/102 98/155/102 91/149/102
f 91/149/103 98/155/103 96/150/103
f 79/134/104 85/136/104 83/137/104
f 4/1/105 47/156/105 7/2/105
f 14/4/106 51/25/106 64/5/106
f 67/7/107 13/41/107 11/8/107
f 5/10/108 2/39/108 11/8/108
f 1/12/109 5/157/109 12/13/109
f 3/14/110 6/158/110 7/15/110
f 57/20/111 9/31/111 8/21/111
f 9/23/112 58/27/112 54/18/112
f 7/26/113 47/107/113 58/27/113
f 43/38/114 62/9/114 11/8/114
f 10/6/115 64/5/115 42/40/115
f 67/7/116 47/156/116 4/1/116
f 16/34/117 20/57/117 21/42/117
f 18/44/118 21/159/118 22/45/118
f 6/49/119 18/44/119 17/46/119
f 3/32/120 16/34/120 18/43/120
f 16/34/121 15/48/121 19/56/121
f 17/46/122 22/45/122 19/58/122
f 28/63/123 26/88/123 81/65/123
f 25/60/124 28/63/124 86/66/124
f 23/59/125 27/64/125 28/63/125
f 32/68/42 36/77/42 35/69/42
f 33/71/43 34/76/43 30/72/43
f 31/70/44 35/69/44 33/74/44
f 32/68/45 30/72/45 34/76/45
f 34/76/126 37/85/126 39/78/126
f 35/69/127 36/77/127 39/78/127
f 52/89/128 47/156/128 48/90/128
f 64/5/129 51/25/129 68/92/129
f 63/94/130 66/115/130 67/7/130
f 63/94/131 44/160/131 49/95/131
f 65/97/132 49/161/132 41/98/132
f 45/99/133 46/16/133 52/100/133
f 57/20/134 53/22/134 56/103/134
f 59/105/135 56/102/135 54/18/135
f 52/106/136 59/105/136 58/27/136
f 43/38/137 44/160/137 63/94/137
f 42/40/138 64/5/138 61/93/138
f 48/90/139 47/156/139 67/7/139
f 75/116/140 74/162/140 70/110/140
f 76/118/141 75/163/141 72/119/141
f 71/120/142 72/119/142 50/123/142
f 72/117/143 70/110/143 45/109/143
f 70/110/144 74/162/144 73/130/144
f 73/131/145 76/118/145 71/120/145
f 85/136/146 86/66/146 81/65/146
f 82/133/147 80/67/147 86/66/147
f 78/132/148 82/133/148 85/136/148
f 93/138/45 94/145/45 90/139/45
f 91/141/44 87/164/44 88/142/44
f 89/140/43 87/165/43 91/144/43
f 92/143/42 88/142/42 90/139/42
f 97/146/149 95/153/149 92/143/149
f 93/138/150 96/154/150 97/146/150
