# Blender v2.79 (sub 0) OBJ File: 'ghost.blend'
# www.blender.org
o Prism_Cube.003
v -0.400000 1.758579 0.000000
v -0.400000 2.041421 0.000000
v -0.400000 1.758579 0.000000
v -0.400000 2.041421 0.000000
v -0.400000 1.758579 0.000000
v -0.400000 2.041421 0.000000
v -0.400000 1.758579 0.000000
v -0.400000 2.041421 0.000000
v -0.300000 1.900000 -0.100000
v -0.300000 1.900000 0.100000
v -0.500000 1.900000 0.100000
v -0.500000 1.900000 -0.100000
vt 0.000136 0.552231
vt 0.316751 0.369433
vt 0.316751 0.735028
vt 0.633366 0.186636
vt 0.316751 0.369433
vt 0.316751 0.003838
vt 0.316751 0.369433
vt 0.000136 0.186636
vt 0.316751 0.369433
vt 0.682859 0.368137
vt 0.682907 0.368149
vt 0.682838 0.368220
vt 0.682934 0.733770
vt 0.682845 0.368089
vt 0.999461 0.550912
vt 0.999461 0.185386
vt 0.366249 0.551019
vt 0.682927 0.002540
vn 0.8165 0.5774 0.0000
vn 0.0000 0.5774 0.8165
vn -0.8165 0.5774 0.0000
vn 0.0000 0.5774 -0.8165
vn 0.0000 0.0000 1.0000
vn 0.0000 -0.5774 -0.8165
vn -0.8165 -0.5774 0.0000
vn 0.0000 -0.5774 0.8165
vn 0.8165 -0.5774 0.0000
s off
f 9/1/1 4/2/1 10/3/1
f 10/4/2 8/5/2 11/6/2
f 11/6/3 6/7/3 12/8/3
f 12/8/4 2/9/4 9/1/4
f 3/10/5 5/11/5 1/12/5
f 8/5/5 2/9/5 6/7/5
f 5/11/5 9/13/5 1/12/5
f 7/14/5 12/15/5 5/11/5
f 3/10/5 11/16/5 7/14/5
f 1/12/5 10/17/5 3/10/5
f 9/1/5 2/9/5 4/2/5
f 10/4/5 4/2/5 8/5/5
f 11/6/5 8/5/5 6/7/5
f 12/8/5 6/7/5 2/9/5
f 3/10/5 7/14/5 5/11/5
f 8/5/5 4/2/5 2/9/5
f 5/11/6 12/15/6 9/13/6
f 7/14/7 11/16/7 12/15/7
f 3/10/8 10/18/8 11/16/8
f 1/12/9 9/13/9 10/17/9
