# Blender v2.79 (sub 0) OBJ File: 'obelisk.blend'
# www.blender.org
o Cube
v -0.400000 0.000000 0.400000
v -0.400000 0.000000 -0.400000
v 0.400000 0.000000 -0.400000
v 0.400000 0.000000 0.400000
v -0.400000 0.600000 0.400000
v -0.400000 0.600000 -0.400000
v 0.400000 0.600000 -0.400000
v 0.400000 0.600000 0.400000
v -0.290000 0.700000 0.300000
v -0.290000 0.700000 -0.300000
v 0.300000 0.700000 -0.300000
v 0.300000 0.700000 0.300000
v -0.242500 3.700000 0.250000
v -0.242500 3.700000 -0.250000
v 0.252500 3.700000 -0.250000
v 0.252500 3.700000 0.250000
v 0.005000 3.950000 -0.000000
v 0.005000 3.950000 -0.000000
v 0.005000 3.950000 -0.000000
v 0.005000 3.950000 -0.000000
vt 0.900000 0.151899
vt 0.200000 0.177215
vt 0.100000 0.151899
vt 0.900000 0.151899
vt 0.100000 0.000000
vt 0.900000 0.000000
vt 0.900000 0.151899
vt 0.100000 0.000000
vt 0.900000 0.000000
vt 0.100000 0.000000
vt 0.900000 0.000000
vt 0.100000 0.000000
vt 0.900000 0.151899
vt 0.100000 0.151899
vt 0.800000 0.177215
vt 0.250000 0.936709
vt 0.210000 0.177215
vt 0.100000 0.151899
vt 0.790000 0.177215
vt 0.200000 0.177215
vt 0.100000 0.151899
vt 0.800000 0.177215
vt 0.200000 0.177215
vt 0.247500 0.936709
vt 0.495000 1.000000
vt 0.495000 1.000000
vt 0.800000 0.177215
vt 0.257500 0.936709
vt 0.750000 0.936709
vt 0.250000 0.936709
vt 0.500000 1.000000
vt 0.500000 1.000000
vt 0.500000 1.000000
vt 0.500000 1.000000
vt 0.505000 1.000000
vt 0.505000 1.000000
vt 0.900000 0.000000
vt 0.750000 0.936709
vt 0.742500 0.936709
vt 0.752500 0.936709
vn 0.7071 0.7071 0.0000
vn -1.0000 -0.0000 0.0000
vn 0.0000 -0.0000 -1.0000
vn 1.0000 -0.0000 0.0000
vn -0.0000 0.0000 1.0000
vn 0.9999 0.0158 0.0000
vn -0.0000 0.7071 0.7071
vn 0.0000 0.7071 -0.7071
vn -0.6727 0.7399 -0.0000
vn -0.0000 0.0167 0.9999
vn 0.0000 0.0167 -0.9999
vn -0.9999 0.0158 -0.0000
vn -0.7107 0.7035 -0.0000
vn 0.7107 0.7035 0.0000
s off
f 7/1/1 12/2/1 8/3/1
f 5/4/2 2/5/2 1/6/2
f 6/7/3 3/8/3 2/9/3
f 7/1/4 4/10/4 3/11/4
f 1/12/5 8/13/5 5/14/5
f 11/15/6 16/16/6 12/2/6
f 8/13/7 9/17/7 5/14/7
f 7/18/8 10/19/8 11/20/8
f 6/21/9 9/22/9 10/23/9
f 15/24/5 18/25/5 19/26/5
f 12/27/10 13/28/10 9/17/10
f 10/19/11 15/24/11 11/20/11
f 10/23/12 13/29/12 14/30/12
f 14/30/5 17/31/5 18/32/5
f 16/16/5 19/33/5 20/34/5
f 13/28/5 20/35/5 17/36/5
f 7/1/1 11/15/1 12/2/1
f 5/4/2 6/21/2 2/5/2
f 6/7/3 7/18/3 3/8/3
f 7/1/4 8/3/4 4/10/4
f 1/12/5 4/37/5 8/13/5
f 11/15/6 15/38/6 16/16/6
f 8/13/7 12/27/7 9/17/7
f 7/18/8 6/7/8 10/19/8
f 6/21/9 5/4/9 9/22/9
f 15/24/8 14/39/8 18/25/8
f 12/27/10 16/40/10 13/28/10
f 10/19/11 14/39/11 15/24/11
f 10/23/12 9/22/12 13/29/12
f 14/30/13 13/29/13 17/31/13
f 16/16/14 15/38/14 19/33/14
f 13/28/7 16/40/7 20/35/7
