# Blender v2.79 (sub 0) OBJ File: 'palm.blend'
# www.blender.org
o Cube.002
v -0.001186 0.000000 -0.130595
v 0.015178 0.900000 -0.092999
v 0.130267 0.000000 0.000858
v 0.115473 0.900000 0.007296
v -0.132639 0.000000 0.000858
v -0.085117 0.900000 0.007296
v -0.001186 0.000000 0.132311
v 0.015178 0.900000 0.107592
v -0.026443 1.800000 -0.094262
v 0.068175 1.785344 0.000858
v -0.121060 1.814656 0.000858
v -0.026443 1.800000 0.095979
v -0.002320 2.745196 -0.060787
v 0.057124 2.736145 -0.001276
v -0.062050 2.742934 -0.001276
v -0.002606 2.733884 0.058235
v 0.000092 2.840460 0.002993
v 0.000092 2.840460 0.002993
v 0.000092 2.840460 0.002993
v 0.000092 2.840460 0.002993
vt 0.450057 0.900061
vt 0.300074 0.000161
vt 0.450057 0.000161
vt 0.150091 0.900061
vt 0.150091 0.000161
vt 0.000107 0.900061
vt 0.000107 0.000161
vt 0.600041 0.900061
vt 0.600040 0.000161
vt 0.450057 1.799960
vt 0.300074 1.799960
vt 0.300074 0.900061
vt 0.150091 1.799960
vt 0.000108 1.799960
vt 0.300074 2.699859
vt 0.150091 2.699859
vt 0.000108 2.699859
vt 0.600040 1.799960
vt 0.450057 2.699859
vt 0.150091 2.879839
vt 0.000108 2.879839
vt 0.450057 2.879839
vt 0.300074 2.879839
vt 0.600040 2.879839
vt 0.600040 2.699859
vn 0.7070 0.0167 -0.7070
vn 0.7071 0.0066 0.7071
vn -0.7067 0.0323 0.7067
vn -0.7065 0.0424 -0.7065
vn -0.7067 -0.0337 -0.7067
vn 0.7067 0.0326 -0.7067
vn 0.7116 0.0420 0.7014
vn -0.7106 -0.0230 0.7033
vn 0.7056 0.0106 0.7086
vn -0.7032 0.0463 0.7095
vn 0.7095 0.0067 -0.7047
vn -0.7050 0.0431 -0.7079
vn 0.0000 0.0000 1.0000
vn -0.7111 -0.0329 -0.7023
vn 0.7111 0.0319 -0.7024
vn 0.7065 0.0429 0.7065
vn -0.7069 -0.0236 0.7069
vn 0.7097 0.0098 0.7044
vn -0.7046 0.0466 0.7081
vn 0.7080 0.0069 -0.7062
vn -0.7060 0.0433 -0.7069
vn -0.6284 0.3705 0.6840
vn 0.6790 0.3965 -0.6179
vn -0.6430 0.4372 -0.6288
vn 0.6592 0.3328 0.6743
s off
f 2/1/1 3/2/1 1/3/1
f 3/2/2 8/4/2 7/5/2
f 7/5/3 6/6/3 5/7/3
f 6/8/4 1/3/4 5/9/4
f 6/8/5 9/10/5 2/1/5
f 2/1/6 10/11/6 4/12/6
f 8/4/7 10/11/7 12/13/7
f 6/6/8 12/13/8 11/14/8
f 12/13/9 14/15/9 16/16/9
f 11/14/10 16/16/10 15/17/10
f 9/10/11 14/15/11 10/11/11
f 11/18/12 13/19/12 9/10/12
f 15/17/13 20/20/13 19/21/13
f 14/15/13 17/22/13 18/23/13
f 13/19/13 19/24/13 17/22/13
f 16/16/13 18/23/13 20/20/13
f 2/1/1 4/12/1 3/2/1
f 3/2/2 4/12/2 8/4/2
f 7/5/3 8/4/3 6/6/3
f 6/8/4 2/1/4 1/3/4
f 6/8/14 11/18/14 9/10/14
f 2/1/15 9/10/15 10/11/15
f 8/4/16 4/12/16 10/11/16
f 6/6/17 8/4/17 12/13/17
f 12/13/18 10/11/18 14/15/18
f 11/14/19 12/13/19 16/16/19
f 9/10/20 13/19/20 14/15/20
f 11/18/21 15/25/21 13/19/21
f 15/17/22 16/16/22 20/20/22
f 14/15/23 13/19/23 17/22/23
f 13/19/24 15/25/24 19/24/24
f 16/16/25 14/15/25 18/23/25
