# Blender v2.79 (sub 0) OBJ File: 'palm.blend'
# www.blender.org
o Cube.001
v 0.875000 0.000000 -0.875000
v 0.875000 0.125000 -0.875000
v 0.875000 0.000000 0.875000
v 0.875000 0.125000 0.875000
v -0.875000 0.000000 -0.875000
v -0.875000 0.125000 -0.875000
v -0.875000 0.000000 0.875000
v -0.875000 0.125000 0.875000
vt 0.935321 0.935321
vt 0.997510 0.064679
vt 0.997510 0.935321
vt 0.935321 0.064679
vt 0.064679 0.002490
vt 0.935321 0.002490
vt 0.064679 0.064679
vt 0.002490 0.935321
vt 0.002490 0.064679
vt 0.064679 0.935321
vt 0.935321 0.997510
vt 0.064679 0.997510
vn 1.0000 0.0000 0.0000
vn 0.0000 0.0000 1.0000
vn -1.0000 0.0000 0.0000
vn 0.0000 0.0000 -1.0000
vn 0.0000 1.0000 0.0000
s off
f 2/1/1 3/2/1 1/3/1
f 4/4/2 7/5/2 3/6/2
f 8/7/3 5/8/3 7/9/3
f 6/10/4 1/11/4 5/12/4
f 4/4/5 6/10/5 8/7/5
f 2/1/1 4/4/1 3/2/1
f 4/4/2 8/7/2 7/5/2
f 8/7/3 6/10/3 5/8/3
f 6/10/4 2/1/4 1/11/4
f 4/4/5 2/1/5 6/10/5
