# Blender v2.79 (sub 0) OBJ File: 'obelisk.blend'
# www.blender.org
o Chest_Cube.003
v 1.000000 0.000000 -1.000000
v 1.000000 1.000000 -1.000000
v 1.000000 0.000000 1.000000
v 1.000000 1.000000 1.000000
v 0.000000 0.000000 -1.000000
v 0.000000 1.000000 -1.000000
v 0.000000 0.000000 1.000000
v 0.000000 1.000000 1.000000
v 0.875000 1.000000 -0.875000
v 0.875000 1.000000 0.875000
v 0.125000 1.000000 0.875000
v 0.125000 1.000000 -0.875000
v 0.500000 1.200000 -0.500000
v 0.500000 1.200000 0.500000
vt 0.500000 0.250000
vt 0.000000 0.000000
vt 0.500000 0.000000
vt 0.750000 0.250000
vt 0.500000 0.000000
vt 0.750000 0.000000
vt 0.500000 0.250000
vt 0.000000 0.000000
vt 0.750000 0.250000
vt 0.750000 0.000000
vt 0.031250 0.218750
vt 0.375000 0.125000
vt 0.468750 0.218750
vt 0.000000 0.000000
vt 0.000000 0.250000
vt 0.500000 0.250000
vt 0.500000 0.000000
vt 0.031250 0.031250
vt 0.468750 0.031250
vt 0.125000 0.125000
vt 0.000000 0.250000
vt 0.000000 0.250000
vn 1.0000 0.0000 0.0000
vn 0.0000 0.0000 1.0000
vn -1.0000 0.0000 0.0000
vn 0.0000 0.0000 -1.0000
vn -0.4706 0.8824 0.0000
vn 0.0000 1.0000 0.0000
vn 0.4706 0.8824 0.0000
vn 0.0000 0.8824 -0.4706
vn 0.0000 0.8824 0.4706
s off
f 2/1/1 3/2/1 1/3/1
f 4/4/2 7/5/2 3/6/2
f 8/7/3 5/8/3 7/5/3
f 6/9/4 1/3/4 5/10/4
f 11/11/5 13/12/5 12/13/5
f 4/14/6 11/11/6 8/15/6
f 8/15/6 12/13/6 6/16/6
f 2/17/6 10/18/6 4/14/6
f 6/16/6 9/19/6 2/17/6
f 9/19/7 14/20/7 10/18/7
f 9/19/8 12/13/8 13/12/8
f 11/11/9 10/18/9 14/20/9
f 2/1/1 4/21/1 3/2/1
f 4/4/2 8/7/2 7/5/2
f 8/7/3 6/22/3 5/8/3
f 6/9/4 2/1/4 1/3/4
f 11/11/5 14/20/5 13/12/5
f 4/14/6 10/18/6 11/11/6
f 8/15/6 11/11/6 12/13/6
f 2/17/6 9/19/6 10/18/6
f 6/16/6 12/13/6 9/19/6
f 9/19/7 13/12/7 14/20/7
