# Blender v2.79 (sub 0) OBJ File: 'obelisk.blend'
# www.blender.org
o Chest_open_Cube.006
v 1.000000 0.000000 -1.000000
v 1.000000 0.875000 -1.000000
v 1.000000 0.000000 1.000000
v 1.000000 0.875000 1.000000
v 0.000000 0.000000 -1.000000
v 0.000000 0.875000 -1.000000
v 0.000000 0.000000 1.000000
v 0.000000 0.875000 1.000000
v 0.875000 0.875000 -0.875000
v 0.875000 0.875000 0.875000
v 0.125000 0.875000 0.875000
v 0.125000 0.875000 -0.875000
v 0.875000 0.125000 -0.875000
v 0.875000 0.125000 0.875000
v 0.125000 0.125000 0.875000
v 0.125000 0.125000 -0.875000
vt 0.500000 0.218750
vt 0.000000 0.000000
vt 0.500000 0.000000
vt 0.750000 0.218750
vt 0.500000 0.000000
vt 0.750000 0.000000
vt 0.500000 0.218750
vt 0.000000 0.000000
vt 0.750000 0.218750
vt 0.750000 0.000000
vt 0.500000 0.500000
vt 0.468750 0.281250
vt 0.500000 0.250000
vt 0.031250 0.281250
vt 0.000000 0.250000
vt 0.000000 0.500000
vt 0.468750 0.468750
vt 0.031250 0.468750
vt 0.031250 0.718750
vt 0.468750 0.531250
vt 0.468750 0.718750
vt 0.031250 0.781250
vt 0.468750 0.968750
vt 0.031250 0.968750
vt 0.031250 0.718750
vt 0.468750 0.531250
vt 0.468750 0.718750
vt 0.531250 0.718750
vt 0.718750 0.531250
vt 0.718750 0.718750
vt 0.531250 0.718750
vt 0.718750 0.531250
vt 0.718750 0.718750
vt 0.000000 0.218750
vt 0.000000 0.218750
vt 0.031250 0.531250
vt 0.468750 0.781250
vt 0.031250 0.531250
vt 0.531250 0.531250
vt 0.531250 0.531250
vn 1.0000 0.0000 0.0000
vn 0.0000 0.0000 1.0000
vn -1.0000 0.0000 0.0000
vn 0.0000 0.0000 -1.0000
vn 0.0000 1.0000 0.0000
s off
f 2/1/1 3/2/1 1/3/1
f 4/4/2 7/5/2 3/6/2
f 8/7/3 5/8/3 7/5/3
f 6/9/4 1/3/4 5/10/4
f 4/11/5 11/12/5 8/13/5
f 8/13/5 12/14/5 6/15/5
f 2/16/5 10/17/5 4/11/5
f 6/15/5 9/18/5 2/16/5
f 11/19/1 16/20/1 12/21/1
f 16/22/5 14/23/5 13/24/5
f 9/25/3 14/26/3 10/27/3
f 12/28/2 13/29/2 9/30/2
f 10/31/4 15/32/4 11/33/4
f 2/1/1 4/34/1 3/2/1
f 4/4/2 8/7/2 7/5/2
f 8/7/3 6/35/3 5/8/3
f 6/9/4 2/1/4 1/3/4
f 4/11/5 10/17/5 11/12/5
f 8/13/5 11/12/5 12/14/5
f 2/16/5 9/18/5 10/17/5
f 6/15/5 12/14/5 9/18/5
f 11/19/1 15/36/1 16/20/1
f 16/22/5 15/37/5 14/23/5
f 9/25/3 13/38/3 14/26/3
f 12/28/2 16/39/2 13/29/2
f 10/31/4 14/40/4 15/32/4
